<?xml version="1.0" encoding="UTF-8"?>
<svg width="27px" height="22px" viewBox="0 0 27 22" version="1.1" xmlns="http://www.w3.org/2000/svg" xmlns:xlink="http://www.w3.org/1999/xlink">
    <!-- Generator: Sketch 46.2 (44496) - http://www.bohemiancoding.com/sketch -->
    <title>Icon_Play</title>
    <desc>Created with Sketch.</desc>
    <defs></defs>
    <g id="Symbols" stroke="none" stroke-width="1" fill="none" fill-rule="evenodd">
        <g id="Footer" transform="translate(-236.000000, -14.000000)" stroke="#FFFFFF">
            <g id="ENTERTAINMENT">
                <g transform="translate(231.000000, 15.000000)">
                    <g id="entertainment_unclick" transform="translate(0.500000, 0.000000)">
                        <path d="M5,13.6369448 C7.99283411,17.8789816 12.2061593,20 17.6399755,20 C23.0737917,20 27.2199231,17.9352544 30.0783699,13.8057631 M10.563939,7.6350198 L13.0985042,7.6350198 L10.9158507,18.0747879 M11.1662134,4.55785747 L13.7007786,4.55785747 M11.8837219,1.49648515 L14.2939648,1.51548876 L14.4806856,0.760051659 L14.4806856,0.760051659 C14.5910286,0.313624419 14.9916094,-7.59308074e-13 15.4514712,-7.59392549e-13 C18.0478533,-7.59318112e-13 20.6442354,-7.59318112e-13 23.2406175,-7.59318112e-13 C23.9190806,-6.77040778e-13 26.4282791,1.20443962 26.4315161,3.7034697 C26.4345989,6.0833547 24.5088721,7.42436597 23.2406175,7.95510388 C22.5405136,8.24808265 21.6007631,8.54690254 20.421366,8.85156357 L20.4213592,8.85153747 C19.886613,8.98967273 19.5650963,9.53515097 19.7032316,10.0698972 C19.7284585,10.1675551 19.7683145,10.2608345 19.8214468,10.3465691 L24.5248308,17.935981 M18.0094044,3.57240277 C18.2690994,3.57240277 18.4796238,3.36195559 18.4796238,3.10235583 C18.4796238,2.84275607 18.2690994,2.63230888 18.0094044,2.63230888 C17.7497094,2.63230888 17.539185,2.84275607 17.539185,3.10235583 C17.539185,3.36195559 17.7497094,3.57240277 18.0094044,3.57240277 Z" id="Icon_Play"></path>
                    </g>
                </g>
            </g>
        </g>
    </g>
</svg>