<?xml version="1.0" encoding="UTF-8"?>
<svg width="27px" height="26px" viewBox="0 0 27 26" version="1.1" xmlns="http://www.w3.org/2000/svg" xmlns:xlink="http://www.w3.org/1999/xlink">
    <!-- Generator: Sketch 46.2 (44496) - http://www.bohemiancoding.com/sketch -->
    <title>Buttom_Parenting</title>
    <desc>Created with Sketch.</desc>
    <defs></defs>
    <g id="Symbols" stroke="none" stroke-width="1" fill="none" fill-rule="evenodd" stroke-linecap="round" stroke-linejoin="round">
        <g id="Footer" transform="translate(-193.000000, -13.000000)">
            <g id="MEDICAL">
                <g transform="translate(181.000000, 14.000000)">
                    <g id="medical_unclick" transform="translate(0.500000, 0.000000)">
                        <g id="Buttom_Parenting" transform="translate(12.000000, 0.000000)">
                            <path d="M13.0241018,18.75 L13.0241018,23.8411765 L4.96980059,23.8411765 L13.0241018,23.8411765 L13.0241018,18.75 L2,18.75 L2,18.75 C0.8954305,18.75 -1.41118758e-14,17.8545695 -1.62092562e-14,16.75 L-1.42108547e-14,2 L-1.44328993e-14,2 C-1.45681701e-14,0.8954305 0.8954305,-1.40079486e-14 2,-1.42108547e-14 L2,-1.42108547e-14 L24,-1.42108547e-14 C25.1045695,-1.44137608e-14 26,0.8954305 26,2 L26,16.75 L26,16.75 C26,17.8545695 25.1045695,18.75 24,18.75 L13.0241018,18.75 Z M13.0241018,23.8411765 L21.1891113,23.8411765 L13.0241018,23.8411765 L13.0241018,23.8422568 L13.0241018,23.8411765 Z M2,-1.42108547e-14 L24,-1.42108547e-14 L24,-1.44328993e-14 C25.1045695,-1.07115863e-14 26,0.8954305 26,2 L26,16.32 L-1.42108547e-14,16.32 L-1.42108547e-14,2 L-1.46549439e-14,2 C-1.47902147e-14,0.8954305 0.8954305,-1.42299932e-14 2,-1.44328993e-14 Z" id="Line-11" stroke="#FFFFFF" fill="#FFFFFF"></path>
                            <path d="M13.488439,17.3833432 C13.5039985,17.4493453 13.5038347,17.5523689 13.4880541,17.6188305 C13.459613,17.7386254 13.3662725,17.8658705 13.2597802,17.9300018 C13.1755543,17.9807341 13.1066422,17.9996716 13.0050961,17.9999916 C12.9051878,18.0003034 12.867583,17.99209 12.7839877,17.951688 C12.648006,17.8859731 12.5408094,17.7501125 12.5103456,17.6048817 C12.4528083,17.3304858 12.6414956,17.0550642 12.9215662,17.0046601 C12.9703984,16.9958724 13.0656962,16.9999503 13.1213827,17.013218 C13.2943796,17.0544406 13.4472392,17.2085739 13.488439,17.3833432 Z" id="Path" stroke="#666666" fill="#666666"></path>
                        </g>
                    </g>
                </g>
            </g>
        </g>
    </g>
</svg>