<?xml version="1.0" encoding="UTF-8"?>
<svg width="22px" height="24px" viewBox="0 0 22 24" version="1.1" xmlns="http://www.w3.org/2000/svg" xmlns:xlink="http://www.w3.org/1999/xlink">
    <!-- Generator: Sketch 46.2 (44496) - http://www.bohemiancoding.com/sketch -->
    <title>Buttom_Parenting</title>
    <desc>Created with Sketch.</desc>
    <defs></defs>
    <g id="Symbols" stroke="none" stroke-width="1" fill="none" fill-rule="evenodd">
        <g id="Footer" transform="translate(-73.000000, -11.000000)">
            <g id="PARENTING">
                <g transform="translate(65.000000, 12.000000)">
                    <g id="parenting_unclick" transform="translate(0.500000, 0.000000)">
                        <g id="Buttom_Parenting" transform="translate(8.000000, 0.000000)">
                            <path d="M10.6831237,10.32116 C9.32087032,8.76992774 7.6438568,7.98552331 5.65208318,7.96794673 C1.88226831,7.93467967 -0.752047305,11.0044867 -0.752047305,14.1296054 C-0.752047305,17.2547242 1.68828278,20.2652204 5.65208318,20.2770245 C7.68477838,20.2830778 9.3617919,19.5097472 10.6831237,17.9570324 C11.9667448,19.2838067 13.4866779,20.2794294 15.2429231,20.9439005 C16.9991683,21.6083717 19.0011923,21.8998977 21.248995,21.8184785 M21.4194788,3.62448468 C20.0572254,2.07325241 18.3802118,1.28884798 16.3884382,1.2712714 C12.6186233,1.23800434 9.98430773,4.30781133 9.98430773,7.43293008 C9.98430773,10.5580488 12.4246378,13.568545 16.3884382,13.5803492 C18.4211334,13.5864025 20.0981469,12.8130718 21.4194788,11.2603571" id="Line-7" stroke="#FFFFFF" stroke-linecap="round" transform="translate(10.333716, 11.551407) rotate(90.000000) translate(-10.333716, -11.551407) "></path>
                            <path d="M5.48563518,6.41728883 C5.04706084,6.41728883 4.69152608,6.06035982 4.69152608,5.62006558 C4.69152608,5.17977133 5.04706084,4.82284232 5.48563518,4.82284232 C5.92420953,4.82284232 6.27974428,5.17977133 6.27974428,5.62006558 C6.27974428,6.06035982 5.92420953,6.41728883 5.48563518,6.41728883 Z M10.2502898,6.41728883 C9.81171544,6.41728883 9.45618069,6.06035982 9.45618069,5.62006558 C9.45618069,5.17977133 9.81171544,4.82284232 10.2502898,4.82284232 C10.6888641,4.82284232 11.0443989,5.17977133 11.0443989,5.62006558 C11.0443989,6.06035982 10.6888641,6.41728883 10.2502898,6.41728883 Z M12.0926229,17.7059701 C11.6540486,17.7059701 11.2985138,17.3490411 11.2985138,16.9087468 C11.2985138,16.4684526 11.6540486,16.1115236 12.0926229,16.1115236 C12.5311972,16.1115236 12.886732,16.4684526 12.886732,16.9087468 C12.886732,17.3490411 12.5311972,17.7059701 12.0926229,17.7059701 Z M16.8572775,17.7059701 C16.4187032,17.7059701 16.0631684,17.3490411 16.0631684,16.9087468 C16.0631684,16.4684526 16.4187032,16.1115236 16.8572775,16.1115236 C17.2958518,16.1115236 17.6513866,16.4684526 17.6513866,16.9087468 C17.6513866,17.3490411 17.2958518,17.7059701 16.8572775,17.7059701 Z" id="Oval-3" fill="#FFFFFF"></path>
                        </g>
                    </g>
                </g>
            </g>
        </g>
    </g>
</svg>