<?xml version="1.0" encoding="UTF-8"?>
<svg width="17px" height="26px" viewBox="0 0 17 26" version="1.1" xmlns="http://www.w3.org/2000/svg" xmlns:xlink="http://www.w3.org/1999/xlink">
    <!-- Generator: Sketch 46.2 (44496) - http://www.bohemiancoding.com/sketch -->
    <title>Group</title>
    <desc>Created with Sketch.</desc>
    <defs></defs>
    <g id="Symbols" stroke="none" stroke-width="1" fill="none" fill-rule="evenodd">
        <g id="Footer" transform="translate(-100.000000, -11.000000)">
            <g id="PARENTING">
                <g transform="translate(87.000000, 12.000000)">
                    <g id="parenting_unclick" transform="translate(0.500000, 0.000000)">
                        <g id="Group" transform="translate(13.000000, 0.000000)">
                            <path d="M1.97560955,0.0287563075 C0.97976428,0.20139393 0.204677781,0.932028887 0.028692842,1.86406624 C-0.00970339688,2.06742875 -0.00949429551,21.9259497 0.0289019433,22.1292632 C0.202482217,23.0480697 0.953129993,23.7705212 1.92856174,23.9575167 C2.16053357,24.0019869 2.37812968,24.003408 8.08398328,23.9975031 L13.9989383,23.9913778 L14.2080396,23.9358573 C15.129105,23.6912343 15.8080049,22.9966166 15.9713915,22.1317133 C16.0098138,21.9283508 16.0093956,2.06742875 15.9709733,1.86406624 C15.8075083,0.998795495 15.1280856,0.30589286 14.2001983,0.0581336151 L13.9989383,0.0044018089 L8.07875575,0.000726582753 C3.31647208,-0.00223809967 2.12279077,0.00325023804 1.97560955,0.0287563075 Z" id="Path" stroke="#FFFFFF" fill="#FFFFFF"></path>
                            <polygon id="Path" stroke="#FFFFFF" fill="#666666" points="16 21 0 21 0 3 16 3"></polygon>
                            <path d="M8.48843902,22.3833432 C8.5039985,22.4493453 8.50383472,22.5523689 8.48805413,22.6188305 C8.45961304,22.7386254 8.36627254,22.8658705 8.25978019,22.9300018 C8.17555427,22.9807341 8.10664216,22.9996716 8.00509608,22.9999916 C7.90518785,23.0003034 7.86758304,22.99209 7.78398769,22.951688 C7.64800603,22.8859731 7.54080941,22.7501125 7.51034559,22.6048817 C7.45280827,22.3304858 7.64149562,22.0550642 7.92156625,22.0046601 C7.97039844,21.9958724 8.06569616,21.9999503 8.12138272,22.013218 C8.29437956,22.0544406 8.44723916,22.2085739 8.48843902,22.3833432 Z" id="Path" stroke="#666666" fill="#D8D8D8"></path>
                        </g>
                    </g>
                </g>
            </g>
        </g>
    </g>
</svg>