<?xml version="1.0" encoding="UTF-8"?>
<svg width="22px" height="24px" viewBox="0 0 22 24" version="1.1" xmlns="http://www.w3.org/2000/svg" xmlns:xlink="http://www.w3.org/1999/xlink">
    <!-- Generator: Sketch 46.2 (44496) - http://www.bohemiancoding.com/sketch -->
    <title>Icon_Cup</title>
    <desc>Created with Sketch.</desc>
    <defs></defs>
    <g id="Symbols" stroke="none" stroke-width="1" fill="none" fill-rule="evenodd" stroke-linecap="round" stroke-linejoin="round">
        <g id="Footer" transform="translate(-322.000000, -13.000000)" stroke="#FFFFFF">
            <g id="LIFE">
                <g transform="translate(314.000000, 14.000000)">
                    <g id="life_unclick" transform="translate(0.500000, 0.000000)">
                        <path d="M8.5671472,21.5043094 L25.8151469,21.5043094 M24.349431,11.6247612 C23.6235314,17.0126887 20.9614939,19.7281619 16.3633185,19.7711806 C11.2497548,19.8190211 8.46198202,16.6362892 8,10.2229847 L25.8151469,10.2229847 C27.4412491,10.2168576 28.2488038,11.2326374 28.237811,13.270324 C28.2286304,14.9720985 27.0960368,15.647296 26.3491532,15.9487395 C25.9311937,16.1174286 25.2646196,16.2051327 24.349431,16.2118517 M16.9452776,2.5189299 C16.9991985,3.58707983 16.4804525,4.11649228 15.3890398,4.10716725 C14.3833312,4.09857448 13.8696253,3.27154244 13.8564261,2.20435575 C13.8412808,0.979822432 14.9030158,-2.27118197e-13 16.3915489,-2.27373675e-13 C18.0136431,-2.27373675e-13 18.9441348,1.02799962 18.9268695,2.5189299 C18.8991423,4.91329316 16.1469787,5.37987176 16.1469787,6.41627432 C16.1469787,7.00433334 16.1469787,7.7693053 16.1469787,8.7111902" id="Icon_Cup"></path>
                    </g>
                </g>
            </g>
        </g>
    </g>
</svg>