<?xml version="1.0" encoding="UTF-8"?>
<svg width="22px" height="22px" viewBox="0 0 22 22" version="1.1" xmlns="http://www.w3.org/2000/svg" xmlns:xlink="http://www.w3.org/1999/xlink">
    <!-- Generator: Sketch 46.2 (44496) - http://www.bohemiancoding.com/sketch -->
    <title>Buttom_Parenting</title>
    <desc>Created with Sketch.</desc>
    <defs></defs>
    <g id="Symbols" stroke="none" stroke-width="1" fill="none" fill-rule="evenodd">
        <g id="Footer" transform="translate(-155.000000, -14.000000)" stroke="#FFFFFF">
            <g id="MEDICAL">
                <g transform="translate(148.000000, 15.000000)">
                    <g id="medical_unclick" transform="translate(0.500000, 0.000000)">
                        <g id="Buttom_Parenting" transform="translate(7.000000, 0.000000)">
                            <path d="M10.5194669,15.625 L10.5194669,19.8676471 L4.01406971,19.8676471 L10.5194669,19.8676471 L10.5194669,15.625 L2,15.625 L2,15.625 C0.8954305,15.625 -1.4075584e-14,14.7295695 -1.42108547e-14,13.625 L-1.42108547e-14,2 L-1.42108547e-14,2 C-1.43461255e-14,0.8954305 0.8954305,-1.40079486e-14 2,-1.42108547e-14 L2,-1.42108547e-14 L19,-1.42108547e-14 C20.1045695,-1.63758704e-14 21,0.8954305 21,2 L21,13.625 L21,13.625 C21,14.7295695 20.1045695,15.625 19,15.625 L10.5194669,15.625 Z M10.5194669,19.8676471 L17.1142822,19.8676471 L10.5194669,19.8676471 L10.5194669,19.8685473 L10.5194669,19.8676471 Z" id="Line-11" stroke-linecap="round" stroke-linejoin="round"></path>
                            <polygon id="Path" stroke-width="3" points="6 7.99095305 10.9889829 7.98362171 10.9889829 3 10.9889829 13 10.9889829 7.98362171 16 7.98362171"></polygon>
                        </g>
                    </g>
                </g>
            </g>
        </g>
    </g>
</svg>