<?xml version="1.0" standalone="no"?>
<!DOCTYPE svg PUBLIC "-//W3C//DTD SVG 20010904//EN"
 "http://www.w3.org/TR/2001/REC-SVG-20010904/DTD/svg10.dtd">
<svg version="1.0" xmlns="http://www.w3.org/2000/svg"
 width="91.000000pt" height="91.000000pt" viewBox="0 0 91.000000 91.000000"
 preserveAspectRatio="xMidYMid meet">

<g transform="translate(0.000000,91.000000) scale(0.100000,-0.100000)"
fill="#000000" stroke="none">
<path d="M405 865 c-18 -15 -33 -21 -39 -15 -6 6 -24 -3 -48 -21 -24 -19 -38
-26 -38 -17 -1 7 -16 -4 -34 -24 -18 -21 -38 -38 -43 -38 -18 0 -60 -102 -67
-163 -5 -37 -13 -60 -22 -64 -23 -9 -44 -58 -44 -102 0 -31 7 -47 30 -71 16
-17 30 -39 30 -50 0 -10 3 -25 6 -33 4 -12 -6 -17 -51 -22 -44 -6 -55 -11 -53
-24 2 -12 12 -15 37 -13 l34 4 -28 -49 c-15 -26 -39 -63 -52 -81 -13 -17 -21
-37 -18 -42 3 -6 38 -10 76 -10 62 0 70 2 67 17 -3 14 -12 17 -46 15 -23 -2
-42 0 -42 3 0 12 82 145 90 145 10 0 31 -50 25 -60 -3 -5 3 -14 14 -20 20 -10
20 -11 1 -30 -30 -30 -23 -80 11 -80 10 0 19 -4 19 -10 0 -16 617 -13 626 2 5
7 9 53 10 103 1 49 7 101 12 115 5 14 6 35 1 47 -7 20 -11 21 -38 12 -21 -7
-45 -8 -78 -1 -26 6 -51 8 -55 6 -4 -3 -8 0 -8 7 0 7 17 27 39 45 21 19 41 44
43 58 6 28 -16 86 -32 86 -6 0 -10 25 -10 60 0 81 -16 114 -107 225 -69 83
-79 91 -86 73 l-7 -21 -23 21 c-18 17 -26 19 -35 10 -10 -10 -14 -8 -18 10 -8
27 -12 27 -49 -3z m142 -144 c50 -23 67 -51 60 -102 -3 -21 -1 -39 3 -41 5 -2
6 -15 3 -30 -5 -27 -6 -27 -34 -13 -37 20 -132 19 -175 -1 -35 -17 -53 -16
-152 5 -24 5 -59 5 -78 1 -40 -9 -42 -3 -15 55 22 47 70 99 110 120 28 14 29
14 35 -15 6 -35 26 -40 26 -8 l0 21 23 -21 c30 -28 47 -28 39 1 -5 21 -4 21
14 6 22 -19 45 -14 37 8 -13 35 41 42 104 14z m7 -191 c21 -8 26 -16 26 -44 0
-28 -5 -36 -30 -46 -30 -12 -127 -9 -150 5 -5 3 -10 21 -10 40 0 27 5 35 28
43 36 14 104 14 136 2z m-244 -20 c30 -48 -8 -73 -104 -68 l-61 3 -3 34 c-2
20 2 38 10 43 21 14 148 5 158 -12z m86 -75 c16 -14 26 -35 30 -65 l6 -45 -69
0 c-37 0 -74 -4 -80 -8 -15 -11 -17 14 -7 75 5 27 12 38 30 42 13 4 24 10 24
15 0 5 8 17 18 27 16 17 17 17 20 -2 2 -10 14 -28 28 -39z m-293 19 c-11 -8
-13 -13 -5 -14 10 0 10 -4 0 -19 -10 -16 -9 -23 5 -39 9 -10 17 -23 17 -28 -1
-25 -40 43 -40 70 0 33 17 59 32 50 5 -3 1 -12 -9 -20z m651 -7 c13 -35 -16
-78 -62 -91 -25 -8 -32 -17 -42 -53 -6 -24 -15 -41 -20 -38 -6 3 -10 0 -10 -8
0 -8 -13 -30 -28 -50 -27 -34 -30 -35 -47 -19 -17 16 -17 15 -11 -13 5 -24 4
-26 -4 -13 -6 10 -22 18 -35 18 -14 0 -26 3 -26 8 -6 33 -5 52 2 52 5 0 10 -4
10 -10 1 -5 3 -14 4 -20 1 -5 3 -13 4 -17 0 -4 6 -2 13 5 8 8 8 15 -2 27 -11
13 -10 18 3 33 16 17 13 62 -3 62 -5 0 -6 -8 -3 -18 8 -32 -19 -43 -47 -20
-16 14 -21 22 -12 25 6 3 12 13 12 22 0 14 6 17 28 14 26 -4 26 -3 -5 11 -18
8 -33 19 -33 25 0 5 -2 15 -5 23 -4 10 10 13 60 13 36 0 65 -3 65 -7 0 -5 4
-8 10 -8 5 0 7 6 4 14 -6 15 5 25 36 31 17 3 20 -2 21 -33 1 -20 4 -48 8 -62
7 -23 8 -21 15 17 9 47 22 62 39 43 9 -9 7 -15 -7 -26 -16 -11 -17 -14 -4 -14
8 0 21 7 28 15 10 13 10 19 -4 34 -19 21 -7 37 20 27 9 -4 12 -2 8 5 -4 6 -19
8 -36 5 -27 -5 -29 -4 -18 10 21 24 63 14 74 -19z m-531 -31 c39 1 47 -2 47
-17 0 -10 -12 -28 -27 -40 -26 -20 -26 -21 -5 -16 17 4 22 1 22 -15 0 -20 22
-48 38 -48 5 0 15 -7 22 -15 11 -13 8 -15 -14 -15 -54 0 -110 47 -76 63 6 3 5
4 -2 3 -7 -2 -13 -13 -13 -26 0 -26 53 -60 94 -60 13 0 30 -8 37 -17 13 -17
15 -17 28 0 16 20 46 23 46 3 0 -18 -71 -29 -106 -16 -36 14 -40 7 -9 -18 14
-11 22 -23 17 -26 -5 -3 -12 -24 -16 -46 -9 -55 -21 -50 -32 13 l-9 52 -40 1
c-39 0 -40 1 -62 64 -13 34 -26 92 -29 128 l-7 64 24 -8 c13 -5 45 -9 72 -8z
m82 -116 c3 -5 1 -10 -4 -10 -6 0 -11 5 -11 10 0 6 2 10 4 10 3 0 8 -4 11 -10z
m139 -42 c-9 -14 -22 -9 -29 12 -3 11 -10 20 -15 20 -5 0 -7 -7 -3 -16 5 -14
1 -16 -20 -12 -14 3 -28 1 -29 -4 -2 -4 -9 2 -17 14 -13 21 -13 22 2 9 11 -9
17 -10 17 -2 0 6 9 11 19 11 11 0 22 4 26 10 3 5 16 0 30 -12 13 -12 22 -25
19 -30z m294 15 c-10 -2 -28 -2 -40 0 -13 2 -5 4 17 4 22 1 32 -1 23 -4z m102
3 c0 -2 -7 -7 -16 -10 -8 -3 -12 -2 -9 4 6 10 25 14 25 6z m-47 -13 c-7 -2
-19 -2 -25 0 -7 3 -2 5 12 5 14 0 19 -2 13 -5z m-371 -125 c-4 -72 -10 -89
-23 -65 -13 23 -24 22 -36 -6 -10 -20 -12 -20 -18 -4 -4 9 -4 34 1 55 6 29 9
32 12 15 3 -23 26 -31 37 -13 3 5 1 19 -5 30 -9 16 -8 20 5 20 8 0 15 5 15 10
0 6 3 10 8 10 4 0 6 -24 4 -52z m-182 2 c0 -5 -7 -10 -16 -10 -8 0 -12 5 -9
10 3 6 10 10 16 10 5 0 9 -4 9 -10z m264 -60 c-7 -6 -24 22 -23 40 0 9 6 5 14
-10 7 -14 11 -27 9 -30z m-297 -22 c-3 -8 -6 -5 -6 6 -1 11 2 17 5 13 3 -3 4
-12 1 -19z"/>
<path d="M460 620 c0 -5 5 -10 10 -10 6 0 10 5 10 10 0 6 -4 10 -10 10 -5 0
-10 -4 -10 -10z"/>
<path d="M184 596 l-27 -23 79 -6 c43 -3 81 -4 83 -1 7 7 -19 23 -49 30 -14 3
-33 9 -42 14 -13 7 -24 4 -44 -14z"/>
<path d="M500 610 c0 -5 -11 -10 -24 -10 -31 0 -76 -17 -76 -28 0 -5 40 -9 90
-8 49 0 90 4 90 8 0 9 -56 48 -69 48 -6 0 -11 -4 -11 -10z"/>
<path d="M425 510 c3 -6 -1 -7 -9 -4 -12 5 -16 0 -16 -19 0 -39 15 -40 33 -2
15 31 15 35 1 35 -8 0 -12 -4 -9 -10z"/>
<path d="M538 513 c7 -3 16 -2 19 1 4 3 -2 6 -13 5 -11 0 -14 -3 -6 -6z"/>
<path d="M468 493 c7 -3 16 -2 19 1 4 3 -2 6 -13 5 -11 0 -14 -3 -6 -6z"/>
<path d="M508 493 c7 -3 16 -2 19 1 4 3 -2 6 -13 5 -11 0 -14 -3 -6 -6z"/>
<path d="M434 468 c-3 -4 13 -8 35 -8 23 0 41 2 41 4 0 8 -71 12 -76 4z"/>
<path d="M163 513 c-16 -6 -17 -49 -1 -59 6 -4 8 -3 4 4 -3 6 -2 22 4 36 5 14
8 26 7 25 -1 0 -8 -3 -14 -6z"/>
<path d="M205 500 c-3 -5 1 -10 10 -10 9 0 13 5 10 10 -3 6 -8 10 -10 10 -2 0
-7 -4 -10 -10z"/>
<path d="M265 490 l20 -9 -20 0 c-11 -1 -26 -5 -34 -10 -10 -6 -1 -9 27 -8 30
2 42 7 45 20 4 14 -1 17 -26 16 -27 0 -29 -2 -12 -9z"/>
</g>
</svg>
